<svg xmlns="http://www.w3.org/2000/svg" viewBox="0 0 480.57 147.37">
  <defs>
    <linearGradient id="a" x1="10.13" y1="93.67" x2="109.71" y2="23.95" gradientUnits="userSpaceOnUse">
      <stop offset="0" stop-color="#dedc00"/>
      <stop offset=".08" stop-color="#e0d405"/>
      <stop offset=".47" stop-color="#eab11e"/>
      <stop offset=".79" stop-color="#f19c2d"/>
      <stop offset="1" stop-color="#f39433"/>
    </linearGradient>
    <linearGradient id="b" x1="21.28" y1="53.17" x2="119.18" y2="121.72" gradientUnits="userSpaceOnUse">
      <stop offset="0" stop-color="#dedc00"/>
      <stop offset=".6" stop-color="#3aaa35"/>
      <stop offset="1" stop-color="#00772d"/>
    </linearGradient>
  </defs>
  <title>scalda</title>
  <g data-name="Laag 1" style="isolation:isolate">
    <path d="M129.86 60s-19-60-70.62-60C26.52 0 0 26.89 0 60s26.52 60.1 59.24 60.1c44.06 0 70.62-60.1 70.62-60.1z" style="mix-blend-mode:multiply" fill="url(#a)"/>
    <path d="M0 87.33s19 60 70.62 60c32.71 0 59.23-26.88 59.23-60s-26.52-60.06-59.23-60.06C26.56 27.27 0 87.33 0 87.33z" style="mix-blend-mode:multiply" fill="url(#b)"/>
    <path d="M218.44 47.86a135.44 135.44 0 0 0-20.6-1.93c-5.55 0-9.92.71-14.28 2.68v6.06c0 6.38 8.68 6.76 16.8 8.34 16.66 3.26 22 7.77 22.14 29.07.12 20.77-12.34 24.3-30.37 24.41a225.42 225.42 0 0 1-25-1.15l1.51-15.91a109.92 109.92 0 0 0 21.24 2.15 16.49 16.49 0 0 0 6.29-.9c6.4-.9 8.84-3.3 8.8-8.92 0-7.57-2.4-8.85-12.44-11.07-13.46-2.84-26-5.8-26.07-24.94l-.09-16.12c7.33-5.45 17.66-8.32 30.36-8.4a184.85 184.85 0 0 1 22.31 1.49zm57.25 10.7l-2.81 12.13a41 41 0 0 0-17.95-4.22c-7 0-9.46 6.87-9.39 18 .07 11.46 2.56 18.37 8.53 18.34 10.35-.06 14.92-2.47 19.5-4.87l2.95 11.88c-3.93 2.94-11.06 6.34-23 6.41-19.2.11-24.5-12-24.61-31.66-.11-19.47 4.94-31.29 24.89-31.4 12.26-.07 17.39 2.83 21.89 5.39zm39.44-5.74c13.76-.08 19 6.27 19.1 19.36l.18 31.15a48.72 48.72 0 0 1-32.57 12.52c-11.63.07-17.86-7.79-17.92-18-.11-19 13.86-20.2 33.71-20.31v-6.71c0-3.14-1.41-4.75-5.36-4.73A79.89 79.89 0 0 0 289 69.3L286.67 57a106.7 106.7 0 0 1 28.46-4.18zm-9.64 49.7a18.91 18.91 0 0 0 12.25-4.29l-.06-10.6c-11.52.28-17.38 1.51-17.34 8.75.02 4.54 2.59 6.15 5.15 6.14zm98.91-74.24l16.75-.1.43 75.6c-5.72 6.85-15.3 11.55-28.53 11.63-19 .11-22.47-11.77-22.58-30.59-.12-21.52 4.4-32.37 21.69-32.47a32.07 32.07 0 0 1 12.39 2zm.39 69.11l-.17-29.63a16.47 16.47 0 0 0-8-2.12c-8.11 0-9.36 5.14-9.28 18.87.07 12.22 1.06 17.52 6.93 17.48 4.25.01 8.62-1.88 10.52-4.6zM461.3 52c13.76-.08 19 6.27 19.1 19.36l.18 31.15A48.72 48.72 0 0 1 448 115c-11.63.07-17.86-7.79-17.92-18-.11-19 13.86-20.2 33.71-20.31v-6.71c0-3.14-1.41-4.75-5.36-4.73a79.9 79.9 0 0 0-23.24 3.16l-2.31-12.32A106.69 106.69 0 0 1 461.3 52zm-9.64 49.7a18.91 18.91 0 0 0 12.25-4.29l-.06-10.6c-11.52.28-17.38 1.51-17.34 8.75.02 4.51 2.59 6.12 5.15 6.1zM362 104.21l-.43-75.27-17 .1.48 84.89a49.54 49.54 0 0 0 16.95-9.72z" fill="#939379"/>
  </g>
</svg>
